<?xml version="1.0" encoding="UTF-8"?>
<svg version="1.1" xmlns="http://www.w3.org/2000/svg" width="100" height="100">
<path d="M0 0 C1.21429688 -0.02578125 2.42859375 -0.0515625 3.6796875 -0.078125 C8.34550533 0.3662386 10.86036633 1.98536633 14.125 5.25 C15.45681116 8.84589014 15.15146176 12.46155789 15.125 16.25 C15.94178223 16.22381592 16.75856445 16.19763184 17.60009766 16.1706543 C21.31653454 16.06643787 25.03266361 16.00159201 28.75 15.9375 C30.03519531 15.89560547 31.32039063 15.85371094 32.64453125 15.81054688 C43.31051697 15.67238644 43.31051697 15.67238644 46.9609375 18.58203125 C50.67843623 23.16515694 50.28555488 27.50998957 50.29296875 33.15234375 C50.29796135 34.46350914 50.29796135 34.46350914 50.30305481 35.80116272 C50.30811649 37.64958164 50.31046337 39.4980097 50.31030273 41.34643555 C50.31248892 44.1731675 50.3306517 46.99950898 50.34960938 49.82617188 C50.35254351 51.6223945 50.35452817 53.41861898 50.35546875 55.21484375 C50.36265427 56.05973862 50.36983978 56.90463348 50.37724304 57.77513123 C50.37416641 58.5659761 50.37108978 59.35682098 50.36791992 60.17163086 C50.36934494 60.8642955 50.37076996 61.55696014 50.37223816 62.27061462 C50.08150518 64.59821894 49.21317042 66.18775414 48.125 68.25 C47.8416324 70.67991141 47.8416324 70.67991141 47.88671875 73.27734375 C47.87060547 74.23447266 47.85449219 75.19160156 47.83789062 76.17773438 C47.82099704 78.18027406 47.8157425 80.18294656 47.82226562 82.18554688 C47.66921398 89.5270889 47.66921398 89.5270889 44.76953125 93.37890625 C40.42485255 96.45291083 36.66072012 96.40326187 31.53588867 96.41113281 C30.7648027 96.41609772 29.99371674 96.42106262 29.19926453 96.42617798 C26.64715686 96.44078807 24.09511137 96.44759993 21.54296875 96.453125 C19.76801044 96.45887773 17.99305215 96.46463545 16.21809387 96.47039795 C12.49492097 96.48090488 8.77176963 96.48674945 5.04858398 96.49023438 C0.28375272 96.49571621 -4.48079237 96.51973884 -9.24553394 96.54820633 C-12.91302822 96.56685449 -16.58045389 96.57203948 -20.24799156 96.57357025 C-22.00422415 96.57659276 -23.76045564 96.58460774 -25.51664162 96.59775543 C-27.9772158 96.61486045 -30.43709513 96.61292493 -32.89770508 96.60644531 C-33.61947937 96.6156601 -34.34125366 96.62487488 -35.0848999 96.6343689 C-39.75169327 96.59598136 -42.97925061 95.8437028 -46.875 93.25 C-49.88642057 89.52417086 -50.25304652 86.60434969 -50.26318359 81.88671875 C-50.27264008 80.62190674 -50.28209656 79.35709473 -50.2918396 78.05395508 C-50.28646956 76.68180018 -50.28031652 75.30964816 -50.2734375 73.9375 C-50.27546005 72.52172699 -50.27837299 71.105955 -50.28213501 69.69018555 C-50.2865499 66.7279261 -50.28015456 63.76593868 -50.26611328 60.80371094 C-50.2490215 57.01401618 -50.25886722 53.22495887 -50.27683067 49.43528748 C-50.28769132 46.51325715 -50.2842118 43.59137699 -50.2764473 40.66934204 C-50.27445158 39.27234826 -50.27688245 37.87534068 -50.28388596 36.47836304 C-50.2915371 34.52333857 -50.27780022 32.56826605 -50.26318359 30.61328125 C-50.26079681 29.50251221 -50.25841003 28.39174316 -50.25595093 27.24731445 C-49.70809094 22.93676278 -48.11505719 20.44369792 -45.01422119 17.45878601 C-42.37215124 15.96586082 -40.67327682 15.88739119 -37.64746094 15.90942383 C-36.60668396 15.90965042 -35.56590698 15.90987701 -34.49359131 15.91011047 C-33.37679993 15.92559433 -32.26000854 15.94107819 -31.109375 15.95703125 C-29.38657318 15.96339851 -29.38657318 15.96339851 -27.62896729 15.96989441 C-23.9607397 15.98668667 -20.29306153 16.02434102 -16.625 16.0625 C-14.13802877 16.07754608 -11.65104892 16.09123461 -9.1640625 16.10351562 C-3.06752088 16.13659204 3.02870031 16.18679744 9.125 16.25 C8.465 13.28 7.805 10.31 7.125 7.25 C2.505 7.25 -2.115 7.25 -6.875 7.25 C-7.865 9.23 -8.855 11.21 -9.875 13.25 C-11.8125 12.9375 -11.8125 12.9375 -13.875 12.25 C-14.875 9.25 -14.875 9.25 -14.125 6.75 C-10.93319754 0.36639507 -6.7770785 0.08596717 0 0 Z " fill="#862C70" transform="translate(49.875,3.75)"/>
<path d="M0 0 C0.73798828 0.03351562 1.47597656 0.06703125 2.23632812 0.1015625 C2.98591797 0.11960937 3.73550781 0.13765625 4.5078125 0.15625 C6.35536523 0.20332141 8.20225971 0.27506484 10.04882812 0.3515625 C10.06341064 1.62797607 10.07799316 2.90438965 10.09301758 4.21948242 C10.15106352 8.96276629 10.22829641 13.70557857 10.3112793 18.44848633 C10.34449895 20.49984066 10.3725401 22.55128575 10.39526367 24.6027832 C10.42886382 27.55459199 10.48118288 30.50557136 10.53710938 33.45703125 C10.5434993 34.37179733 10.54988922 35.28656342 10.55647278 36.22904968 C10.66740977 41.05183156 10.85273192 44.47769217 14.04882812 48.3515625 C17.51195633 50.66031464 18.89986786 50.61982279 22.98901367 50.67041016 C24.21005295 50.69027985 25.43109222 50.71014954 26.68913269 50.73062134 C28.00794937 50.74217255 29.32676605 50.75372375 30.68554688 50.765625 C32.04890619 50.78433597 33.41225392 50.80390933 34.77558899 50.8243103 C38.36102467 50.87564534 41.94649791 50.91526349 45.53210449 50.95245361 C49.19207051 50.99248481 52.85188014 51.04358115 56.51171875 51.09375 C63.69064793 51.19052545 70.86965274 51.27492482 78.04882812 51.3515625 C78.1567565 53.95683355 78.2360769 56.55764561 78.29882812 59.1640625 C78.33234375 59.90205078 78.36585937 60.64003906 78.40039062 61.40039062 C78.49908507 66.85325855 78.49908507 66.85325855 76.5020752 69.06336975 C73.15806127 70.81930153 70.09386852 70.77873413 66.40625 70.75561523 C65.64155899 70.76247849 64.87686798 70.76934174 64.08900452 70.77641296 C61.56500608 70.79469261 59.04162845 70.79084237 56.51757812 70.78515625 C54.761676 70.78971714 53.00577566 70.79502244 51.24987793 70.80104065 C47.57129663 70.80997375 43.89293241 70.80754598 40.21435547 70.79760742 C35.49964408 70.78611086 30.78568089 70.80633842 26.07106781 70.83552456 C22.44565063 70.85386655 18.82041347 70.85359824 15.19496155 70.84788704 C13.45661875 70.84773361 11.71826391 70.8537955 9.97996521 70.86617851 C7.54996714 70.88105134 5.12136065 70.87044052 2.69140625 70.85327148 C1.61434166 70.86777344 1.61434166 70.86777344 0.51551819 70.88256836 C-2.73574739 70.83444727 -4.67895522 70.5353059 -7.3974762 68.70033264 C-9.38326204 65.69835835 -9.45232893 63.85837363 -9.45288086 60.26953125 C-9.46226181 59.04145752 -9.47164276 57.81338379 -9.48130798 56.5480957 C-9.47082959 55.21174421 -9.45946056 53.87539944 -9.44726562 52.5390625 C-9.44742066 51.16430586 -9.44891033 49.78954879 -9.45167542 48.41479492 C-9.45305862 45.53642405 -9.44051563 42.65855195 -9.41772461 39.78027344 C-9.38933937 36.0946692 -9.39207793 32.40989345 -9.40481472 28.72422791 C-9.41177683 25.88628082 -9.40397671 23.04852452 -9.39155769 20.21060181 C-9.38704831 18.85186495 -9.38670193 17.49310758 -9.39062309 16.1343689 C-9.39354016 14.23407612 -9.37485078 12.33378741 -9.35522461 10.43359375 C-9.34982162 9.35311768 -9.34441864 8.2726416 -9.33885193 7.15942383 C-8.49725641 1.06397606 -5.93035228 -0.10733669 0 0 Z " fill="#9D0AC0" transform="translate(13.951171875,24.6484375)"/>
<path d="M0 0 C1.21429688 -0.02578125 2.42859375 -0.0515625 3.6796875 -0.078125 C8.34550533 0.3662386 10.86036633 1.98536633 14.125 5.25 C15.45681116 8.84589014 15.15146176 12.46155789 15.125 16.25 C15.94178223 16.22381592 16.75856445 16.19763184 17.60009766 16.1706543 C21.31653454 16.06643787 25.03266361 16.00159201 28.75 15.9375 C30.03519531 15.89560547 31.32039063 15.85371094 32.64453125 15.81054688 C43.31051697 15.67238644 43.31051697 15.67238644 46.9609375 18.58203125 C50.67843623 23.16515694 50.28555488 27.50998957 50.29296875 33.15234375 C50.29796135 34.46350914 50.29796135 34.46350914 50.30305481 35.80116272 C50.30811649 37.64958164 50.31046337 39.4980097 50.31030273 41.34643555 C50.31248892 44.1731675 50.3306517 46.99950898 50.34960938 49.82617188 C50.35254351 51.6223945 50.35452817 53.41861898 50.35546875 55.21484375 C50.36265427 56.05973862 50.36983978 56.90463348 50.37724304 57.77513123 C50.37416641 58.5659761 50.37108978 59.35682098 50.36791992 60.17163086 C50.36934494 60.8642955 50.37076996 61.55696014 50.37223816 62.27061462 C50.08150518 64.59821894 49.21317042 66.18775414 48.125 68.25 C47.8416324 70.67991141 47.8416324 70.67991141 47.88671875 73.27734375 C47.87060547 74.23447266 47.85449219 75.19160156 47.83789062 76.17773438 C47.82099704 78.18027406 47.8157425 80.18294656 47.82226562 82.18554688 C47.66921398 89.5270889 47.66921398 89.5270889 44.76953125 93.37890625 C40.42485255 96.45291083 36.66072012 96.40326187 31.53588867 96.41113281 C30.7648027 96.41609772 29.99371674 96.42106262 29.19926453 96.42617798 C26.64715686 96.44078807 24.09511137 96.44759993 21.54296875 96.453125 C19.76801044 96.45887773 17.99305215 96.46463545 16.21809387 96.47039795 C12.49492097 96.48090488 8.77176963 96.48674945 5.04858398 96.49023438 C0.28375272 96.49571621 -4.48079237 96.51973884 -9.24553394 96.54820633 C-12.91302822 96.56685449 -16.58045389 96.57203948 -20.24799156 96.57357025 C-22.00422415 96.57659276 -23.76045564 96.58460774 -25.51664162 96.59775543 C-27.9772158 96.61486045 -30.43709513 96.61292493 -32.89770508 96.60644531 C-33.61947937 96.6156601 -34.34125366 96.62487488 -35.0848999 96.6343689 C-39.75169327 96.59598136 -42.97925061 95.8437028 -46.875 93.25 C-49.88642057 89.52417086 -50.25304652 86.60434969 -50.26318359 81.88671875 C-50.27264008 80.62190674 -50.28209656 79.35709473 -50.2918396 78.05395508 C-50.28646956 76.68180018 -50.28031652 75.30964816 -50.2734375 73.9375 C-50.27546005 72.52172699 -50.27837299 71.105955 -50.28213501 69.69018555 C-50.2865499 66.7279261 -50.28015456 63.76593868 -50.26611328 60.80371094 C-50.2490215 57.01401618 -50.25886722 53.22495887 -50.27683067 49.43528748 C-50.28769132 46.51325715 -50.2842118 43.59137699 -50.2764473 40.66934204 C-50.27445158 39.27234826 -50.27688245 37.87534068 -50.28388596 36.47836304 C-50.2915371 34.52333857 -50.27780022 32.56826605 -50.26318359 30.61328125 C-50.26079681 29.50251221 -50.25841003 28.39174316 -50.25595093 27.24731445 C-49.70809094 22.93676278 -48.11505719 20.44369792 -45.01422119 17.45878601 C-42.37215124 15.96586082 -40.67327682 15.88739119 -37.64746094 15.90942383 C-36.60668396 15.90965042 -35.56590698 15.90987701 -34.49359131 15.91011047 C-33.37679993 15.92559433 -32.26000854 15.94107819 -31.109375 15.95703125 C-29.38657318 15.96339851 -29.38657318 15.96339851 -27.62896729 15.96989441 C-23.9607397 15.98668667 -20.29306153 16.02434102 -16.625 16.0625 C-14.13802877 16.07754608 -11.65104892 16.09123461 -9.1640625 16.10351562 C-3.06752088 16.13659204 3.02870031 16.18679744 9.125 16.25 C8.465 13.28 7.805 10.31 7.125 7.25 C2.505 7.25 -2.115 7.25 -6.875 7.25 C-7.865 9.23 -8.855 11.21 -9.875 13.25 C-11.8125 12.9375 -11.8125 12.9375 -13.875 12.25 C-14.875 9.25 -14.875 9.25 -14.125 6.75 C-10.93319754 0.36639507 -6.7770785 0.08596717 0 0 Z M-43.58680725 22.89428711 C-45.21918918 25.87941736 -45.26206245 27.93435475 -45.27905273 31.33203125 C-45.29173691 32.56010498 -45.30442108 33.78817871 -45.31748962 35.0534668 C-45.31543825 36.38981291 -45.31245028 37.72615787 -45.30859375 39.0625 C-45.31315631 40.43725848 -45.3184621 41.81201469 -45.32447815 43.18676758 C-45.33340436 46.0650358 -45.33099152 48.94302647 -45.32104492 51.82128906 C-45.30954806 55.50699851 -45.32977856 59.19175088 -45.35896206 62.87733459 C-45.37732005 65.71527168 -45.37703266 68.55297913 -45.37132454 71.39096069 C-45.37117131 72.74971867 -45.37721699 74.10849219 -45.38961601 75.4671936 C-45.40451561 77.36739844 -45.3912242 79.26776094 -45.37670898 81.16796875 C-45.37654282 82.24844482 -45.37637665 83.3289209 -45.37620544 84.44213867 C-45.05479116 87.31557554 -45.05479116 87.31557554 -43.32130432 89.59877014 C-40.00375244 91.838083 -37.10006624 91.80378422 -33.23242188 91.75170898 C-32.46773087 91.75711197 -31.70303986 91.76251495 -30.91517639 91.76808167 C-28.39097218 91.78057483 -25.86790729 91.76407493 -23.34375 91.74609375 C-21.58784933 91.74624873 -19.83194831 91.74773746 -18.0760498 91.75050354 C-14.39738835 91.75188779 -10.71911666 91.7393253 -7.04052734 91.71655273 C-2.32589822 91.6881679 2.38808327 91.69090501 7.10276031 91.70364285 C10.72818531 91.71059888 14.35346069 91.70281163 17.97886658 91.69038582 C19.71719285 91.68587058 21.45553519 91.68553516 23.19386292 91.68945122 C25.62371727 91.69236274 28.05268018 91.67586014 30.48242188 91.65405273 C31.20046494 91.65855438 31.918508 91.66305603 32.65830994 91.66769409 C35.70000699 91.62235205 37.86585781 91.3860748 40.57824707 89.96180725 C43.15499846 87.11009019 42.53972376 83.68959051 42.375 80.0625 C42.35695313 79.31291016 42.33890625 78.56332031 42.3203125 77.79101562 C42.27324109 75.9434629 42.20149766 74.09656841 42.125 72.25 C41.37189041 72.24857498 40.61878082 72.24714996 39.84284973 72.24568176 C32.73618701 72.22783247 25.63015301 72.18616274 18.52382374 72.11790943 C14.87053575 72.08365666 11.21766514 72.05853229 7.56420898 72.05444336 C4.03655715 72.05015645 0.50984653 72.02166394 -3.01751137 71.97656822 C-5.01428378 71.95730794 -7.01124614 71.96294686 -9.00810242 71.96894836 C-19.10738041 71.80645921 -19.10738041 71.80645921 -22.17700195 68.83081055 C-24.31601262 65.57969886 -25.00190981 63.9066919 -25.08032227 60.07568359 C-25.10026749 59.21494232 -25.12021271 58.35420105 -25.14076233 57.46737671 C-25.15747482 56.53712677 -25.17418732 55.60687683 -25.19140625 54.6484375 C-25.21218735 53.69683746 -25.23296844 52.74523743 -25.25437927 51.76480103 C-25.31988133 48.71827568 -25.3787628 45.67166257 -25.4375 42.625 C-25.48068459 40.56249084 -25.52429886 38.49999063 -25.56835938 36.4375 C-25.6755634 31.37509046 -25.77682902 26.31259245 -25.875 21.25 C-28.48027105 21.14207163 -31.08108311 21.06275122 -33.6875 21 C-34.42548828 20.96648438 -35.16347656 20.93296875 -35.92382812 20.8984375 C-40.15761756 20.72958663 -40.15761756 20.72958663 -43.58680725 22.89428711 Z M-20.875 21.25 C-20.94908977 27.31890175 -21.00357359 33.38754097 -21.03979492 39.45678711 C-21.05489271 41.52193791 -21.07537274 43.5870566 -21.10131836 45.65209961 C-21.13765795 48.61840739 -21.1547163 51.58429171 -21.16796875 54.55078125 C-21.18345261 55.4758699 -21.19893646 56.40095856 -21.21488953 57.3540802 C-21.21511612 58.21474594 -21.21534271 59.07541168 -21.21557617 59.9621582 C-21.22223801 60.71938675 -21.22889984 61.4766153 -21.23576355 62.25679016 C-21.00043922 64.31320674 -21.00043922 64.31320674 -19.70953369 65.99273682 C-17.14106008 67.75299193 -15.28322064 67.63777487 -12.18188477 67.65405273 C-11.01379776 67.66673691 -9.84571075 67.67942108 -8.64222717 67.69248962 C-6.74844582 67.68808617 -6.74844582 67.68808617 -4.81640625 67.68359375 C-2.87265358 67.69145653 -2.87265358 67.69145653 -0.88963318 67.69947815 C1.85338063 67.70841231 4.59610336 67.70598333 7.33911133 67.69604492 C10.85111254 67.68455916 14.36210769 67.70475716 17.87397671 67.73396206 C21.22723569 67.75674231 24.5802592 67.74985679 27.93359375 67.74609375 C29.19409042 67.75732773 30.4545871 67.76856171 31.75328064 67.78013611 C32.92451981 67.77075516 34.09575897 67.76137421 35.30249023 67.75170898 C36.84778664 67.75145973 36.84778664 67.75145973 38.42430115 67.75120544 C41.86016914 67.11356466 43.03928846 66.01405468 45.125 63.25 C45.52272619 60.26930487 45.68647059 57.66595697 45.65625 54.6875 C45.6600769 53.85919678 45.66390381 53.03089355 45.66784668 52.17749023 C45.67056425 50.42918683 45.66321381 48.68084266 45.64648438 46.93261719 C45.62507082 44.25884223 45.64628944 41.58775404 45.671875 38.9140625 C45.66923169 37.21353575 45.66410665 35.51301066 45.65625 33.8125 C45.66434692 33.01448975 45.67244385 32.21647949 45.68078613 31.39428711 C45.62393065 28.02328356 45.52224799 25.78361121 43.47674561 23.03594971 C40.44995965 20.73736457 38.75586774 20.7651962 34.97949219 20.79589844 C33.11801544 20.79635162 33.11801544 20.79635162 31.21893311 20.79681396 C29.86990718 20.81723885 28.52088783 20.83810281 27.171875 20.859375 C25.78754494 20.86683898 24.40320428 20.87253117 23.01885986 20.87652588 C19.38210683 20.89177026 15.74599675 20.93104048 12.10949707 20.9753418 C8.39600318 21.01632108 4.68240501 21.03454249 0.96875 21.0546875 C-6.31279254 21.09753699 -13.59380605 21.16577246 -20.875 21.25 Z " fill="#393D46" transform="translate(49.875,3.75)"/>
<path d="M0 0 C19.14 0 38.28 0 58 0 C58 2.97 58 5.94 58 9 C50.58540058 9.02312883 43.17080889 9.04091785 35.75618076 9.05181217 C32.31359652 9.05703982 28.87103688 9.06413531 25.4284668 9.07543945 C21.47444957 9.08834235 17.52044244 9.09322918 13.56640625 9.09765625 C11.70394005 9.10539818 11.70394005 9.10539818 9.80384827 9.11329651 C8.09218727 9.11340981 8.09218727 9.11340981 6.34594727 9.11352539 C5.335569 9.115746 4.32519073 9.11796661 3.28419495 9.12025452 C1 9 1 9 0 8 C0 5.36 0 2.72 0 0 Z " fill="#872B71" transform="translate(34,76)"/>
<path d="M0 0 C1.32 0 2.64 0 4 0 C4 19.14 4 38.28 4 58 C2.68 58 1.36 58 0 58 C-1.70565618 56.29434382 -1.12752055 54.09266505 -1.12939453 51.76171875 C-1.13254669 50.64385986 -1.13569885 49.52600098 -1.13894653 48.37426758 C-1.1369223 47.15763428 -1.13489807 45.94100098 -1.1328125 44.6875 C-1.13376923 43.44830811 -1.13472595 42.20911621 -1.13571167 40.93237305 C-1.13639374 38.30611719 -1.13503538 35.67995367 -1.13037109 33.05371094 C-1.12467381 29.68071286 -1.12795302 26.30779435 -1.13394356 22.93479919 C-1.1384177 19.72736323 -1.13528882 16.519937 -1.1328125 13.3125 C-1.13483673 12.0958667 -1.13686096 10.8792334 -1.13894653 9.62573242 C-1.13579437 8.50787354 -1.13264221 7.39001465 -1.12939453 6.23828125 C-1.12859894 5.24868408 -1.12780334 4.25908691 -1.12698364 3.23950195 C-1 1 -1 1 0 0 Z " fill="#423851" transform="translate(13,31)"/>
<path d="M0 0 C3.63 0 7.26 0 11 0 C11.33 1.32 11.66 2.64 12 4 C11 5 11 5 8.49609375 5.09765625 C6.98208984 5.08025391 6.98208984 5.08025391 5.4375 5.0625 C4.42558594 5.05347656 3.41367187 5.04445313 2.37109375 5.03515625 C1.58863281 5.02355469 0.80617187 5.01195313 0 5 C0 3.35 0 1.7 0 0 Z " fill="#F4EBF2" transform="translate(56,60)"/>
</svg>
